<?xml version="1.0" encoding="utf-8"?>
<!-- Generator: Adobe Illustrator 19.0.0, SVG Export Plug-In . SVG Version: 6.00 Build 0)  -->
<svg version="1.1" id="Layer_1" xmlns="http://www.w3.org/2000/svg" xmlns:xlink="http://www.w3.org/1999/xlink" x="0px" y="0px"
	 viewBox="0 0 500 500" style="enable-background:new 0 0 500 500;" xml:space="preserve">
<style type="text/css">
	.st0{fill:#625379;}
	.st1{fill:#CBBFFC;}
</style>
<g>
	<g id="XMLID_9_">
		<path id="XMLID_19_" class="st0" d="M481,500H19c-10.4,0-19-8.6-19-19V19C0,8.6,8.6,0,19,0h462c10.5,0,19,8.6,19,19v462
			C500,491.4,491.5,500,481,500z"/>
	</g>
	<g>
		<path id="XMLID_7_" class="st1" d="M285.7,213.8c6.7,0,13.2,0,20.1,0c0,3.1,0,6.2,0,9.2c5.8-6.4,12.4-10.7,21.2-10.7
			c8.7,0.1,15.6,3.4,20.2,11.1c1.7-1.6,3.3-3.2,5.1-4.6c8.6-6.8,18.2-8.2,28.4-4.8c9,3,12.9,10.2,14,19.1c0.5,3.6,0.4,7.3,0.4,10.9
			c0,12.9,0,25.7,0,38.6c0,0.8,0,1.6,0,2.6c-6.8,0-13.5,0-20.4,0c0-0.9,0-1.8,0-2.6c0-12.1,0.1-24.3,0-36.4c0-2.6-0.3-5.3-1-7.7
			c-1.3-4.7-4.9-7.3-9.8-7.6c-5.5-0.3-9.8,1.8-11.6,6.4c-1,2.6-1.5,5.6-1.6,8.5c-0.2,12.4-0.1,24.7-0.1,37.1c0,0.8,0,1.6,0,2.5
			c-6.8,0-13.5,0-20.4,0c0-0.9,0-1.7,0-2.6c0-12.1,0.1-24.3,0-36.4c0-2.7-0.3-5.4-1-7.9c-1.3-4.6-4.9-7.1-9.7-7.4
			c-5.5-0.3-9.8,1.8-11.6,6.3c-1,2.6-1.6,5.6-1.6,8.5c-0.2,12.4-0.1,24.7-0.1,37.1c0,0.8,0,1.6,0,2.5c-6.8,0-13.4,0-20.3,0
			C285.7,261.6,285.7,237.8,285.7,213.8z"/>
		<path id="XMLID_6_" class="st1" d="M403.9,275.7c2.9-4.5,5.8-8.8,8.7-13.2c2.9,1.6,5.5,3.3,8.3,4.6c5.6,2.7,11.5,4.5,17.9,3.5
			c0.9-0.1,1.7-0.4,2.5-0.7c3.5-1.6,4.1-5.7,0.9-7.8c-2.2-1.5-4.8-2.4-7.3-3.3c-4.8-1.7-9.8-2.9-14.4-4.9c-7.2-3-12.3-8.1-12.8-16.4
			c-0.8-12.3,6-21.2,18.2-24.1c10.8-2.6,26.2,0.6,35.4,7.5c-2.5,4.6-5.1,9.2-7.7,13.8c-2.6-1.2-5-2.7-7.5-3.5
			c-4.1-1.2-8.3-2.1-12.4-3c-0.5-0.1-1.2,0-1.7,0.1c-3.2,0.4-5.1,1.9-5.5,4.1c-0.4,2.1,0.7,4,3.7,5.3c4.3,1.8,8.7,3.2,13,4.9
			c3,1.2,6.1,2.4,9,3.9c7.1,3.8,11.2,9.5,10.8,17.9c-0.4,8.9-4.3,15.6-12.6,19.3c-9.7,4.2-19.7,3.6-29.7,0.7
			C414.5,282.5,409,279.7,403.9,275.7z"/>
		<path id="XMLID_5_" class="st1" d="M131.8,229.1c14.7-0.3,28.2,11.6,28.1,29.1c-0.1,16.7-12.6,29.3-28.9,29.2
			c-15.5-0.1-28-13.2-27.8-29.3C103.4,241,116.7,228.7,131.8,229.1z"/>
		<path id="XMLID_4_" class="st1" d="M274.9,224.6c-4.1,4.5-8.1,8.8-12.2,13.3c-1.1-1-2.1-1.9-3.1-2.8c-5.7-4.9-12.1-6.7-19.2-3.8
			c-7.2,2.9-10.4,9-11.1,16.4c-0.6,6.9,1.1,13.2,6.5,18c6,5.3,15.1,5.7,22.3,1c1.9-1.3,3.7-2.8,5.2-4c4,3.8,8,7.6,12,11.3
			c-8.6,11.7-23.3,15.7-37.9,12.6c-15.7-3.4-26.9-16.8-28.3-33.6c-1.3-16.4,7.9-31.7,22.6-37.8C246.9,209,265.1,212.9,274.9,224.6z"
			/>
		<path class="st1" d="M92.7,286.2c-1.8,0-3.4,0-5.3,0c0-3.9,0-7.6,0-12.1c-0.8,1-1.3,1.5-1.7,2.1c-7.4,9.8-17.9,13.6-28.8,10.3
			c-10.9-3.3-18.7-13.3-19.6-24.8c-0.6-8,0.9-15.5,5.8-22c10.7-14.1,30.7-14.4,41.8-0.7c0.6,0.8,1.3,1.6,2.4,2.3c0-4.8,0-9.6,0-14.4
			c0-4.8,0-9.6,0-14.5c1.9,0,3.5,0,5.3,0C92.7,237.1,92.7,261.5,92.7,286.2z M43.2,258c0,1,0,2,0,3.1c0.1,0.9,0.2,1.7,0.4,2.6
			c1.7,8.5,6.3,14.9,14.8,17.6c8.3,2.7,15.9,0.7,22.1-5.3c6.6-6.3,8.4-14.3,6.8-23c-2.9-15.7-20.8-23.8-33.9-15.5
			C45.8,242.2,43.3,249.6,43.2,258z"/>
		<path id="XMLID_1_" class="st1" d="M198.7,280.8c0,1.5,0.1,2.8-0.1,4c-0.1,0.5-0.6,1.1-1.1,1.3c-5.6,2.1-11.3,2.3-16.7-0.5
			c-4.5-2.4-6.7-6.5-6.8-11.4c-0.2-8.2-0.1-16.4-0.1-24.6c0-4-0.1-8,0-12c0.1-1.8-0.6-2.3-2.2-2.2c-1.9,0.1-3.8,0-5.8,0
			c0-1.6,0-3.1,0-4.9c2.5,0,5.1,0,7.9,0c0-6.1,0-11.9,0-17.9c1.9,0,3.5,0,5.4,0c0,5.8,0,11.7,0,17.8c6.6,0,13.1,0,19.6,0
			c0,1.7,0,3.2,0,5c-6.5,0-12.9,0-19.5,0c0,1.1,0,1.8,0,2.6c0,10.8,0.2,21.7-0.1,32.5c-0.3,11.3,7.5,13.1,15,11.6
			C195.7,281.8,197.1,281.2,198.7,280.8z"/>
	</g>
</g>
</svg>
