<?xml version="1.0" encoding="utf-8"?>
<!-- Generator: Adobe Illustrator 19.0.0, SVG Export Plug-In . SVG Version: 6.00 Build 0)  -->
<svg version="1.1" id="Layer_1" xmlns="http://www.w3.org/2000/svg" xmlns:xlink="http://www.w3.org/1999/xlink" x="0px" y="0px"
	 viewBox="0 0 500 500" style="enable-background:new 0 0 500 500;" xml:space="preserve">
<style type="text/css">
	.st0{fill:#625379;}
	.st1{fill:#CBBFFC;}
</style>
<g>
	<g id="XMLID_7_">
		<path id="XMLID_18_" class="st0" d="M481,500H19c-10.4,0-19-8.6-19-19L0,19C0,8.6,8.6,0,19,0h462c10.5,0,19,8.6,19,19v462
			C500,491.4,491.5,500,481,500z"/>
	</g>
	<g>
		<polygon id="XMLID_6_" class="st1" points="177.1,124.1 189.4,124.1 189.4,137.6 202.9,137.6 202.9,97.3 189.4,97.3 189.4,110.6 
			177.1,110.6 177.1,97.3 163.6,97.3 163.6,137.6 177.1,137.6 		"/>
		<polygon id="XMLID_5_" class="st1" points="220.6,137.6 234.1,137.6 234.1,110.7 245.9,110.7 245.9,97.3 208.7,97.3 208.7,110.7 
			220.6,110.7 		"/>
		<polygon id="XMLID_4_" class="st1" points="265,117.6 274.3,131.9 274.5,131.9 283.8,117.6 283.8,137.6 297.2,137.6 297.2,97.3 
			283.1,97.3 274.5,111.5 265.9,97.3 251.8,97.3 251.8,137.6 265,137.6 		"/>
		<polygon id="XMLID_3_" class="st1" points="336.3,124.3 317.3,124.3 317.3,97.3 303.9,97.3 303.9,137.6 336.3,137.6 		"/>
		<path class="st1" d="M144.2,155.3l19.3,216l86.5,24l86.5-24l19.3-216H144.2z M314,225.9h-64h-37.4L215,253h35h61.6l-7.3,81.4
			l-54.3,15l0,0l-54.3-15.1l-3.8-42.6h26.6l2,22.1l29.5,8l0,0l0,0l29.5-8l3.1-34.4H250l0,0h-59.2l-7.2-80.1H250h66.4L314,225.9z"/>
	</g>
</g>
</svg>
