<?xml version="1.0" encoding="utf-8"?>
<!-- Generator: Adobe Illustrator 19.0.0, SVG Export Plug-In . SVG Version: 6.00 Build 0)  -->
<svg version="1.1" id="Layer_1" xmlns="http://www.w3.org/2000/svg" xmlns:xlink="http://www.w3.org/1999/xlink" x="0px" y="0px"
	 viewBox="0 0 500 500" style="enable-background:new 0 0 500 500;" xml:space="preserve">
<style type="text/css">
	.st0{fill:#625379;}
	.st1{fill:#CBBFFC;}
</style>
<g>
	<g id="XMLID_3_">
		<path id="XMLID_14_" class="st0" d="M481,500H19c-10.4,0-19-8.6-19-19L0,19C0,8.6,8.6,0,19,0h462c10.5,0,19,8.6,19,19v462
			C500,491.4,491.5,500,481,500z"/>
	</g>
	<g>
		<g>
			<path id="XMLID_2_" class="st1" d="M181.7,160.7h40.3v112.8c0,50.8-24.4,68.6-63.3,68.6c-9.5,0-21.7-1.6-29.7-4.2l4.5-32.6
				c5.6,1.9,12.7,3.2,20.7,3.2c16.9,0,27.5-7.7,27.5-35.2V160.7z"/>
			<path id="XMLID_1_" class="st1" d="M256.9,297.9c10.6,5.6,27.5,11.1,44.8,11.1c18.5,0,28.3-7.7,28.3-19.6
				c0-10.9-8.5-17.5-29.9-24.9c-29.7-10.6-49.3-27-49.3-53.2c0-30.5,25.7-53.5,67.5-53.5c20.4,0,35,4,45.6,9l-9,32.3
				c-6.9-3.4-19.9-8.5-37.1-8.5c-17.5,0-26,8.2-26,17.2c0,11.4,9.8,16.4,33.1,25.4c31.5,11.7,46.1,28.1,46.1,53.5
				c0,29.9-22.8,55.4-71.8,55.4c-20.4,0-40.5-5.6-50.6-11.1L256.9,297.9z"/>
		</g>
	</g>
</g>
</svg>
