<?xml version="1.0" encoding="utf-8"?>
<!-- Generator: Adobe Illustrator 19.0.0, SVG Export Plug-In . SVG Version: 6.00 Build 0)  -->
<svg version="1.1" id="Layer_1" xmlns="http://www.w3.org/2000/svg" xmlns:xlink="http://www.w3.org/1999/xlink" x="0px" y="0px"
	 viewBox="0 0 500 500" style="enable-background:new 0 0 500 500;" xml:space="preserve">
<style type="text/css">
	.st0{fill:#625379;}
	.st1{fill:#CBBFFC;}
</style>
<g id="XMLID_1_">
	<g>
		<g id="XMLID_16_">
			<path id="XMLID_25_" class="st0" d="M481,500H19c-10.4,0-19-8.6-19-19V19C0,8.6,8.6,0,19,0h462c10.5,0,19,8.6,19,19v462
				C500,491.4,491.5,500,481,500z"/>
		</g>
	</g>
	<g>
		<path id="XMLID_15_" class="st1" d="M115.9,388.4c0.6-5.3-0.7-11.6,7.8-12.2c1.2-0.1,2.9-3,3.4-4.8c2-7.4,3.7-14.9,5.3-22.4
			c2.5-11.2,2.6-11.3,15.9-9.8c-3.8,14.3-7.2,28.5-11.5,42.4c-0.9,2.8-5.5,4.5-8.3,6.7C124.2,388.4,120,388.4,115.9,388.4z"/>
		<path id="XMLID_14_" class="st1" d="M339.5,244.6c-18.8,29.5-44.2,43.8-77.7,44.1c-50.6,0.4-94.4-34.4-105.1-83.9
			c-4.8-22.1-1.5-42.9,12.3-61.4c1.3-1.8,2.8-3.3,4.8-4.9c-10.8,55.9,12.8,94.2,61.5,117.9C271,273.8,306,270.3,339.5,244.6z"/>
		<path id="XMLID_13_" class="st1" d="M224,120.9c-5.2,38.3,6.8,63.3,38.3,81.3c28.9,16.5,55.1,14.6,80.8-5.7
			c-3.8,10.7-14,20.2-27.8,26.1c-41.8,17.8-91.4-6.8-102.2-50.8c-3.9-16-2.4-31.3,6.8-45.3C220.9,124.7,222.3,123.1,224,120.9z"/>
		<path class="st1" d="M200.8,358.1c1.8,0.3,3.3,0.6,5.5,1c-0.8,3.5-1.5,6.8-2.3,10.4c-12.5,0-24.7,0.4-36.9-0.1
			c-7.6-0.3-12.3-5.2-14.1-12.8c-5.3-22.3,11-44.8,32.2-44.4c15.9,0.3,25.1,12.3,21.1,27.8C204.8,346,202.7,351.8,200.8,358.1z
			 M188,358.4c1.8-6.6,3.6-12.9,5.2-19.3c1.9-7.8,0-12.3-5.8-14.3c-6.9-2.5-14.2,0.4-16.9,7.4c-1.9,5-3.2,10.3-4.2,15.6
			c-1.2,6.5,2.2,10.3,8.8,10.7C179.1,358.6,183,358.4,188,358.4z"/>
		<path class="st1" d="M269.8,352c-1.5,4-0.1,6.2,4.3,6.5c7,0.4,14,0.8,21.6,1.2c-0.6,3.3-1.1,6.2-1.7,9.7c-9.3,0-18.7,0.5-27.9-0.2
			c-7-0.5-10.5-5.5-9.7-12.6c0.6-5.3,1.5-10.7,3.1-15.8c3.9-12.9,16.9-19.8,29.9-16.5c8.4,2.1,11.8,6.7,11.1,15.3
			c-0.2,2.1-1,4.1-1,6.1c0,4.6-2.2,5.9-6.7,5.8c-7.3-0.3-14.5,0-21.8,0.1C270.8,351.5,270.4,351.8,269.8,352z M287.9,341.7
			c0.1-4.9-2-6.8-5.9-7c-5-0.3-8.7,1.3-10.1,7C277.4,341.7,282.4,341.7,287.9,341.7z"/>
		<path id="XMLID_6_" class="st1" d="M216.7,325.1c4.6,0,7.9,0,11.9,0c-1.7,11-3.3,21.7-5,33c5.4,0,9.4,0,14,0
			c2.4-10.7,4.8-21.6,7.4-32.7c3.5,0,7,0,11.4,0c-3.1,14.8-6.1,29.4-9.2,44.3c-8.8,0-17.1,0.3-25.3-0.1c-6.7-0.3-10.6-4.3-9.9-11
			C213,347.4,215.1,336.4,216.7,325.1z"/>
		<path id="XMLID_5_" class="st1" d="M265.4,111.6c-4.5,35.5,36.8,65.8,69.4,50.5c-7.6,15.7-38.2,16.3-54.4,5.3
			C263.8,156.2,250.8,129.9,265.4,111.6z"/>
		<path id="XMLID_4_" class="st1" d="M338.5,369.4c5-10.8-0.9-20.1-2.5-29.7c9.8-2.4,11.9-1.7,15.6,5.6c4.4-6.3,9.4-12.1,12.7-18.7
			c4.4-8.9,11.2-9.5,19.9-7.8c-11.6,16.6-23,33-34.4,49.3c0.5,0.4,0.9,0.8,1.4,1.2C347.2,369.4,343.3,369.4,338.5,369.4z"/>
		<path id="XMLID_3_" class="st1" d="M310.9,324.7c9.7,0,19-0.1,28.3,0c6.6,0.1,8,4.7,8.4,10.9c-7.5,0-14.8,0.2-22.2-0.1
			c-4-0.2-5.5,1.3-6.1,5.1c-1.1,6.5-2.6,13-4,19.5c-2.2,10.6-2.3,10.6-13.9,8.9C304.7,354.5,307.7,340,310.9,324.7z"/>
		<path id="XMLID_2_" class="st1" d="M136.1,334.3c2.2-10.2,2.2-10.2,14-9.1C149.1,336.1,149.1,336.1,136.1,334.3z"/>
	</g>
</g>
</svg>
