<?xml version="1.0" encoding="utf-8"?>
<!-- Generator: Adobe Illustrator 23.0.4, SVG Export Plug-In . SVG Version: 6.00 Build 0)  -->
<svg version="1.1" id="Layer_1" xmlns="http://www.w3.org/2000/svg" xmlns:xlink="http://www.w3.org/1999/xlink" x="0px" y="0px"
	 viewBox="0 0 1000 76.29" style="enable-background:new 0 0 1000 76.29;" xml:space="preserve">
<style type="text/css">
	.st0{fill:#67527B;}
	.st1{fill:#FFFFFF;}
</style>
<g>
	<g>
		
			<rect x="392.25" y="-703.06" transform="matrix(0.7071 -0.7071 0.7071 0.7071 598.674 77.8022)" class="st0" width="2.01" height="38.59"/>
	</g>
	<g>
		
			<rect x="373.98" y="-684.89" transform="matrix(0.7071 -0.7071 0.7071 0.7071 598.7515 77.7407)" class="st0" width="38.48" height="2.01"/>
	</g>
</g>
<g>
	<path class="st1" d="M0,0.69h25.47c15.72,0,27.84,5.55,27.84,22.43c0,16.25-12.12,23.63-27.84,23.63H13.41v29.54H0V0.69z
		 M24.09,36.02c10.36,0,16-4.3,16-12.9c0-8.69-5.64-11.7-16-11.7H13.41v24.6H24.09z M22.95,43.16l9.71-8l23.6,41.13H41.2
		L22.95,43.16z"/>
	<path class="st1" d="M79.97,0.69h45.5v11.28H93.38v19.37h27.19v11.28H93.38v22.38h33.25v11.28H79.97V0.69z"/>
	<path class="st1" d="M153.71,0.69h13.78l23.49,42.49l7.82,16.14h0.46c-0.65-7.82-1.71-17.39-1.71-25.8V0.69h12.76v75.6h-13.78
		l-23.49-42.56l-7.81-16.07h-0.46c0.65,8,1.71,17.11,1.71,25.52v33.11h-12.76V0.69z"/>
	<path class="st1" d="M255.87,0.69h15.72l24.65,75.6h-14.19l-11.51-40.23c-2.4-8-4.62-16.62-6.84-24.92h-0.46
		c-2.08,8.37-4.3,16.92-6.71,24.92l-11.61,40.23h-13.69L255.87,0.69z M245.79,45.29h35.6v10.52h-35.6V45.29z"/>
	<path class="st1" d="M324.98,11.97h-21.82V0.69h57.06v11.28h-21.82v64.32h-13.41V11.97z"/>
	<path class="st1" d="M394.55,0.69h15.72l24.64,75.6h-14.2l-11.51-40.23c-2.4-8-4.62-16.62-6.84-24.92h-0.46
		c-2.08,8.37-4.3,16.92-6.7,24.92l-11.61,40.23h-13.68L394.55,0.69z M384.47,45.29h35.6v10.52h-35.6V45.29z"/>
	<path class="st1" d="M474.39,3.24h-24.74V0h53.17v3.24h-24.74v73.05h-3.7V3.24z"/>
	<path class="st1" d="M529.39,0h21.04c15.03,0,24.51,5.55,24.51,19.65c0,13.41-9.48,20.58-24.51,20.58H533.1v36.06h-3.7V0z
		 M549.05,36.99c14.1,0,21.96-5.55,21.96-17.34c0-12.02-7.86-16.41-21.96-16.41H533.1v33.75H549.05z M549.51,39.07l4.16-0.23
		l22.42,37.45h-4.39L549.51,39.07z"/>
	<path class="st1" d="M602.67,0h3.7v76.29h-3.7V0z"/>
	<path class="st1" d="M641.03,0h3.93l33.75,55.95l8.78,15.03h0.46c-0.23-7.4-0.46-14.34-0.46-21.5V0h3.47v76.29h-3.93l-33.75-55.95
		L644.5,5.32h-0.46c0.23,7.17,0.46,13.64,0.46,20.81v50.17h-3.47V0z"/>
	<path class="st1" d="M725.63,0h17.11c23.58,0,34.22,15.26,34.22,37.92c0,22.65-10.63,38.38-34.22,38.38h-17.11V0z M742.28,73.05
		c21.73,0,30.75-15.03,30.75-35.14s-9.02-34.68-30.75-34.68h-12.95v69.82H742.28z"/>
	<path class="st1" d="M822.25,0h3.24l27.28,76.29h-3.93l-15.95-45.77c-3.23-9.25-6.01-17.11-8.78-26.59h-0.46
		c-2.78,9.48-5.55,17.34-8.78,26.59l-16.19,45.77h-3.7L822.25,0z M806.76,45.77h33.87v3.24h-33.87V45.77z"/>
	<path class="st1" d="M877.03,0h17.11c23.58,0,34.21,15.26,34.21,37.92c0,22.65-10.63,38.38-34.21,38.38h-17.11V0z M893.67,73.05
		c21.73,0,30.75-15.03,30.75-35.14S915.4,3.24,893.67,3.24h-12.95v69.82H893.67z"/>
	<path class="st1" d="M957.92,0h40.92v3.24h-37.22v30.75h31.21v3.24h-31.21v35.83H1000v3.24h-42.08V0z"/>
</g>
</svg>
