<?xml version="1.0" encoding="utf-8"?>
<!-- Generator: Adobe Illustrator 23.0.4, SVG Export Plug-In . SVG Version: 6.00 Build 0)  -->
<svg version="1.1" id="Layer_1" xmlns="http://www.w3.org/2000/svg" xmlns:xlink="http://www.w3.org/1999/xlink" x="0px" y="0px"
	 viewBox="0 0 1000 707.62" style="enable-background:new 0 0 1000 707.62;" xml:space="preserve">
<style type="text/css">
	.st0{fill:#D2C1FF;}
	.st1{fill:#67527B;}
</style>
<g>
	<g>
		<path class="st0" d="M765.3,707.62H234.7C105.28,707.62,0,602.33,0,472.93V234.7C0,105.29,105.28,0,234.7,0h530.6
			C894.72,0,1000,105.29,1000,234.7v238.23C1000,602.33,894.72,707.62,765.3,707.62z M234.7,25.32
			c-115.45,0-209.38,93.93-209.38,209.39v238.23c0,115.45,93.93,209.37,209.38,209.37h530.6c115.45,0,209.38-93.93,209.38-209.37
			V234.7c0-115.46-93.93-209.39-209.38-209.39H234.7z"/>
	</g>
	<g>
		<path class="st0" d="M368.95,518.63V185.32l329.23,171.95L368.95,518.63z M394.26,227.1v250.93l247.86-121.47L394.26,227.1z"/>
	</g>
</g>
<g>
	<g>
		
			<rect x="392.25" y="-387.4" transform="matrix(0.7071 -0.7071 0.7071 0.7071 375.469 170.2598)" class="st1" width="2.01" height="38.59"/>
	</g>
	<g>
		
			<rect x="373.98" y="-369.23" transform="matrix(0.7071 -0.7071 0.7071 0.7071 375.5431 170.1955)" class="st1" width="38.48" height="2.01"/>
	</g>
</g>
</svg>
