<?xml version="1.0" encoding="utf-8"?>
<!-- Generator: Adobe Illustrator 19.0.0, SVG Export Plug-In . SVG Version: 6.00 Build 0)  -->
<svg version="1.1" id="Layer_1" xmlns="http://www.w3.org/2000/svg" xmlns:xlink="http://www.w3.org/1999/xlink" x="0px" y="0px"
	 viewBox="0 0 500 500" style="enable-background:new 0 0 500 500;" xml:space="preserve">
<style type="text/css">
	.st0{fill:#625379;}
	.st1{fill:#CBBFFC;}
</style>
<g>
	<g>
		<g>
			<path class="st0" d="M481,500H19c-10.4,0-19-8.6-19-19V19C0,8.6,8.6,0,19,0h462c10.5,0,19,8.6,19,19v462
				C500,491.4,491.5,500,481,500z"/>
		</g>
	</g>
	<g>
		<path class="st1" d="M141.5,260.4c7.4-5.8,16.5-8.6,24.6-13.1c2.5-1.4,4.9,0,6.6,1.9c3.1,3.5,7,3.9,11.3,3.5
			c9.8,0.3,10.6-0.6,5.9-8.3c-11.9-19.4-16.2-40.2-14.8-62.9c1.2-20.5,0.4-41.2,0.5-61.7c0-5.1-0.1-10-4.4-13.7
			c-2.8-2.5-1.8-5.4-0.3-8.3c3.5-6.9,6.8-14,10.1-21c3.4-4.1,5.1-0.5,7.1,1.6c2.9,6.2,5.8,12.5,8.8,18.7c1.4,2.8,2.9,6.1,0.6,8.5
			c-8.9,9.5-4.6,21-5.5,31.7c-0.4,4.5,2.5,5.2,5.9,4c2.8-1,5.7-2.5,6.2-6c2.5-1.3,5-2.5,7.3-3.8c10.8-6.3,22.1-10.1,34.9-10
			c22.6,0.3,45.2-0.2,67.8-0.4c3,0,7.3,0.4,8.9-1.3c6.9-7.8,12.9-2.9,19.2,0.4c5.2,2.7,10.3,5.5,15.5,8.3
			c-1.8,8.2-9.5,9.2-15.2,12.6c-6.2,3.6-12.2,7.9-19,0c-2.3-2.6-7.1-2.8-11.1-2.4c-2.7,0.2-5.9-0.6-7.3,2.6c-1.3,3,0.6,5.5,2.3,7.6
			c12.7,15.6,17.5,33.5,17,53.4c-0.5,22.8-0.1,45.7-0.2,68.6c0,5.8-0.5,11.7,4.6,16.2c1.8,1.5,2,3.9,0.8,6.2
			c-3.6,7.2-7.1,14.5-10.7,21.7c-1.6,3.1-4.7,4.1-6.5,0.9c-4.5-8-8.4-16.3-12.4-24.6c-0.7-1.4,0-2.9,1.1-3.8
			c7.9-6.2,6.2-14.9,6.1-23.1c-0.1-4.4,0.5-10.3-3-12.3c-4-2.3-8.3,2.6-11.4,5.2c-12.2,10.3-26.1,14.1-41.7,14
			c-22-0.2-44-0.1-66.1,0c-2.7,0-6.1-1-8,1.2c-6.4,7.3-12.5,4.5-19.1,0.4c-3.5-2.2-7.4-3.8-11.3-5.4
			C143.4,265.9,141.5,263.9,141.5,260.4z M210.2,234c19.2,23.5,54.7,24.3,77.7,1.9c19.2-14.9,21.1-46.9,10.9-64.1
			c-20.5-34.8-64.7-39.3-91.9-9.3C186.5,184.8,190.8,216,210.2,234z"/>
		<path class="st1" d="M157.4,375c10.4-9.6,22.5-9.6,32.2,1.9c1.1,2.8,2,5.7,1.9,8.8c0,5.5-1,6.4-6.5,6.6
			c-5.5,0.2-11.1-0.6-16.5,0.6c-1.6,0.4-3.9-0.5-4.5,2c-0.6,2.7,1,4,3.2,4.9c4.2,3,8.7,2.4,13.3,1c1.8-0.6,3.4-0.5,5,0.6
			c0.7,4.8-0.5,6.6-5.2,7.9c-1.6,0.4-3.2,0.8-4.9,0.9c-10.2,1.1-21.7-5.4-21.8-17.8C153.7,386.4,154.6,380.6,157.4,375z
			 M172.7,385.1c0-0.1,0-0.1,0-0.2c2.1,0,4.1,0,6.2,0c1.1,0,2.2-0.5,2.6-1.7c0.4-1.1-0.1-2.1-0.9-3c-3.7-4-10.7-3.9-14.4,0.1
			c-1,1-1.9,2.1-1.3,3.6c0.7,1.4,2.1,1,3.3,1.1C169.6,385.1,171.2,385.1,172.7,385.1z"/>
		<path class="st1" d="M109.1,356.7c2.5-3.2,6.6-3.5,10.7-0.6c3.1,11.1,7.4,21.9,11.8,32.7c4.4-10.6,8.9-21,11.9-31.8
			c3.4-3.4,6.3-3.7,9.9-1c0.2,2.3-0.7,4.3-1.5,6.4c-1.9,5-4,9.9-5.9,15c-3.5,9.4-6.8,18.8-10.2,28.2c-0.8,2.2-2.1,3.4-4.6,3.3
			c-2.3-0.2-3.3-1.5-4-3.5C121.2,389,115.1,372.8,109.1,356.7z"/>
		<path class="st1" d="M353,370.8c3.3-2.4,6.1-2.2,9.5,0.9c2.4,8,5.9,15.6,9.5,23.2c3.7-7.7,6.9-15.3,9.3-23.2
			c3.4-3.3,7.8-3.3,9.6,0c-0.5,1.4-0.9,2.9-1.4,4.3c-4.8,12.3-9.9,24.6-14.3,37c-2,5.7-5.2,9.5-10.9,11.3c-6.4,2-7.5,1.3-8.4-5.4
			c1.6-3.1,5.2-1.5,7.3-3.2c3.9-1.4,4.2-4.2,2.9-7.7c-3.3-9-6.7-18-9.9-27C355,377.6,353.1,374.5,353,370.8z"/>
		<path class="st1" d="M340.7,400.9c1.1,0.7,2.4,0.8,3.6,0.5c3.2-0.7,5,0.3,5.1,3.8c0.2,3.6-0.8,6.1-4.7,6.4
			c-2.6,0.2-5.3,0.3-7.8-0.1c-5.8-0.9-9.2-5.1-9.6-11.7c-0.2-4-0.2-8-0.1-12c0-3.8-0.3-7.2-3.2-10.3c-2.5-2.6-1.6-6.7,1.6-8.8
			c2.1-1.4,1.5-3.4,1.9-5.2c0.8-4.5,6.3-6.5,10.1-3.6c0,2-0.1,4.1-0.1,6.1c0,2.3,1.2,3.2,3.4,2.5c2.1,1.1,5.4-1.5,6.6,2.1
			c1,4.9,0.2,6.2-4.7,6c-4.4-0.3-5.5,1.8-5.4,5.6c0.1,4.7,0,9.3,0.2,14C337.8,398.3,337.9,400.6,340.7,400.9z"/>
		<path class="st1" d="M226.4,375.9c9.5-10.4,18.8-10.1,27.7,0.9c2.1,4.8,3.1,9.8,3.1,15c-0.1,7.3-5.9,15.1-12.8,17.1
			c-7.4,2.1-14.3-0.8-18.7-7.9C220.4,392.5,221.5,384.2,226.4,375.9z M249.3,389.5c0.1-3-0.7-5.7-2.3-8.2
			c-3.1-4.6-10.7-4.9-13.8-0.5c-4.4,6.1-4.4,10.3-0.3,16.5c3.8,5.7,10.4,5.7,14.2,0C248.6,394.9,249.4,392.3,249.3,389.5z"/>
		<path class="st1" d="M264.6,377.5c7.2-10,19.3-11.3,27.9-7.3c1.1,0.5,2.3,0.9,2.8,2.3c-2,5.9-2.3,6-8.6,4.7
			c-3.6-0.7-7.3-1.2-10.6,1.3c-5.8,4.5-5.8,16.8-0.1,21.5c4.6,2.2,9.2,2.6,13.7-0.1c3.1-1.9,4.1,0.5,5.3,2.5
			c0.8,2.7-0.6,4.1-2.9,5.1c-3.8,1.8-7.9,2.3-12.1,2.4c-8,0.1-14.6-4.9-17.1-12.5C260.7,390.6,261.6,384,264.6,377.5z"/>
		<path class="st1" d="M301.5,371.6c0.5-2,2.1-2.3,3.8-2.4c1.4-0.1,3,0.3,4.3-1c-5.4-4-6.3-6-4.8-10.5c0.8-2.4,2.4-3.7,4.7-4
			c2.7-0.3,4.7,1.1,5.5,3.5c1.1,3.1,2,6.3-1.1,9.1c-3.4,3,2.1,3.2,1.8,5.3c0.1,11.2,0.1,22.3,0.2,33.5c0,2.9-1,4.4-3.9,4.6
			c-4.2,0.2-5.3-0.8-5.4-5.1c-0.2-7.7,0.5-15.4-0.4-23.1c-0.2-1.5-0.2-3.2-1.8-3.9C301.5,376.3,301.6,373.9,301.5,371.6z"/>
		<path class="st1" d="M201.9,355.8c2.2-3,6.6-3.4,9.5-0.8c0,14.5,0.1,29,0.1,43.5c0,2.1,0.4,4,1.7,5.8c1.6,2.1,0.9,3.8-1.6,4.9
			c-5.2,2.2-10.1-1-10.1-7C201.5,386.8,201,371.3,201.9,355.8z"/>
	</g>
</g>
</svg>
