<?xml version="1.0" encoding="utf-8"?>
<!-- Generator: Adobe Illustrator 19.0.0, SVG Export Plug-In . SVG Version: 6.00 Build 0)  -->
<svg version="1.1" id="Layer_1" xmlns="http://www.w3.org/2000/svg" xmlns:xlink="http://www.w3.org/1999/xlink" x="0px" y="0px"
	 viewBox="0 0 500 500" style="enable-background:new 0 0 500 500;" xml:space="preserve">
<style type="text/css">
	.st0{fill:#625379;}
	.st1{fill:#CBBFFC;}
</style>
<g>
	<g>
		<path id="XMLID_10_" class="st0" d="M481,500H19c-10.4,0-19-8.6-19-19V19C0,8.6,8.6,0,19,0h462c10.4,0,19,8.6,19,19v462
			C500,491.4,491.5,500,481,500z"/>
	</g>
	<g>
		<path class="st1" d="M250.3,395.4c-0.2,0-0.5,0-0.7,0c-0.2-0.2-0.5-0.2-0.8-0.3c-5.9-1.6-11.7-3.3-17.6-4.9
			c-21.8-6.1-43.7-12.1-65.5-18.2c-2.1-0.6-2-0.6-2.2-2.7c-0.4-4.9-0.9-9.8-1.3-14.7c-0.5-5.6-1-11.3-1.5-16.9
			c-0.4-4.9-0.9-9.8-1.3-14.7c-0.5-5.6-1-11.3-1.5-16.9c-0.4-4.9-0.9-9.8-1.3-14.6c-0.5-5.7-1-11.3-1.5-17
			c-0.4-4.9-0.9-9.8-1.3-14.6c-0.5-5.7-1-11.4-1.5-17.1c-0.4-4.8-0.9-9.6-1.3-14.5c-0.5-5.7-1-11.4-1.5-17.1
			c-0.4-4.9-0.9-9.8-1.3-14.6c-0.5-5.6-1-11.3-1.5-16.9c-0.4-4.3-0.8-8.6-1.2-13c-0.3-3.4-0.6-6.7-0.9-10.1c0-0.5,0.1-0.7,0.6-0.6
			c0.2,0,0.5,0,0.7,0c69.5,0,139,0,208.5,0c0.2,0,0.4,0,0.5,0c0.6-0.1,0.8,0.2,0.7,0.8c-0.5,4.9-0.9,9.8-1.4,14.7
			c-0.8,9.2-1.6,18.4-2.5,27.6c-0.9,9.9-1.8,19.7-2.6,29.6c-0.8,9.2-1.6,18.4-2.5,27.6c-0.9,9.9-1.8,19.7-2.6,29.6
			c-0.8,9.2-1.6,18.4-2.5,27.6c-0.9,9.9-1.8,19.7-2.6,29.6c-0.8,9.2-1.7,18.4-2.4,27.6c-0.1,0.6-0.2,0.8-0.8,1
			c-8.2,2.3-16.4,4.5-24.5,6.8c-18.3,5.1-36.6,10.1-54.9,15.2C254.2,394.2,252.2,394.6,250.3,395.4z M250,199.9
			C250,199.9,250,199.9,250,199.9c-0.4,0-0.8,0-1.1,0c-21,0-41.9,0-62.9,0c-0.7,0-1.7-0.3-2.1,0.1c-0.3,0.4,0,1.4,0.1,2.1
			c0.7,7.7,1.4,15.3,2.1,22.9c0.1,1.2,0.1,1.2,1.2,1.2c32.9,0,65.8,0,98.7,0c0.1,0,0.3,0,0.4,0c0.6-0.1,0.8,0.1,0.7,0.7
			c-0.3,2.7-0.5,5.3-0.7,8c-0.5,5.8-1.1,11.6-1.5,17.4c-0.1,0.9-0.4,0.9-1.1,0.9c-19.2,0-38.4,0-57.7,0c-12.1,0-24.3,0-36.4,0
			c-0.2,0-0.4,0-0.6,0c-0.4,0-0.5,0.1-0.5,0.5c0.2,2.6,0.5,5.2,0.7,7.8c0.5,5.6,1,11.3,1.5,16.9c0.1,1.2,0.1,1.2,1.3,1.2
			c29.8,0,59.6,0,89.3,0c0.2,0,0.4,0,0.5,0c0.5-0.1,0.5,0.2,0.5,0.6c-0.5,5.2-0.9,10.5-1.4,15.7c-0.5,5.7-1,11.4-1.5,17.1
			c-0.1,0.7-0.2,1-0.9,1.2c-9.4,2.5-18.8,5.1-28.2,7.6c-0.3,0.1-0.6,0.1-0.9,0c-9.4-2.5-18.8-5.1-28.2-7.6c-0.5-0.1-0.7-0.4-0.8-0.9
			c-0.2-2.9-0.5-5.7-0.7-8.6c-0.3-3.7-0.7-7.5-1-11.2c0-0.5-0.2-0.6-0.7-0.6c-8.4,0-16.8,0-25.2,0c-0.6,0-0.7,0.1-0.6,0.7
			c0.3,2.8,0.5,5.5,0.7,8.3c0.4,4.9,0.9,9.9,1.3,14.8c0.5,5.6,1,11.2,1.5,16.8c0.1,0.7,0.3,0.9,0.9,1.1c17.6,4.9,35.1,9.7,52.7,14.6
			c0.4,0.1,0.8,0.1,1.3,0c10.5-2.9,21-5.8,31.6-8.7c7.1-2,14.2-3.9,21.2-5.9c0.5-0.1,0.7-0.4,0.8-0.9c0.1-1.5,0.2-3,0.4-4.5
			c0.5-5.7,1-11.3,1.5-17c0.4-4.8,0.9-9.7,1.3-14.5c0.4-5,0.9-10,1.4-15.1c0.4-4.8,0.9-9.7,1.3-14.5c0.5-5.6,1-11.2,1.5-16.7
			c0.4-4.9,0.9-9.8,1.3-14.7c0.6-6.2,1.1-12.4,1.7-18.7c0.5-5.8,1-11.5,1.6-17.3c0.1-0.7,0-1-0.9-1c-21.5,0-43.1,0-64.6,0
			C250.4,199.9,250.2,199.9,250,199.9z"/>
		<path class="st1" d="M248.5,97.3c5.1,0,10.1,0,15.2,0c0.7,0,0.8,0.2,0.8,0.8c0,3.3,0,6.7,0,10c0,0.6-0.1,0.8-0.8,0.8
			c-5.7,0-11.3,0-17,0c-0.7,0-0.9,0.2-0.9,0.9c0,1.5,0,1.5,1.5,1.5c5.4,0,10.9,0,16.3,0c0.7,0,0.9,0.1,0.9,0.8c0,8.4,0,16.8,0,25.2
			c0,0.7-0.2,0.8-0.8,0.8c-10.1,0-20.2,0-30.4,0c-0.6,0-0.9-0.1-0.8-0.8c0-3.5,0-7.1,0-10.6c0-0.7,0.2-0.8,0.8-0.8
			c5.6,0,11.3,0,16.9,0c0.7,0,1-0.1,0.9-0.9c-0.1-1.4,0-1.4-1.5-1.4c-5.4,0-10.9,0-16.3,0c-0.7,0-0.9-0.2-0.9-0.9
			c0-8.2,0-16.3,0-24.5c0-0.7,0.2-0.9,0.9-0.8C238.4,97.3,243.5,97.3,248.5,97.3z"/>
		<path class="st1" d="M287,97.3c5.1,0,10.1,0,15.2,0c0.6,0,0.8,0.1,0.8,0.8c0,3.4,0,6.7,0,10.1c0,0.7-0.2,0.8-0.8,0.8
			c-5.6,0-11.3,0-16.9,0c-0.8,0-0.9,0.2-0.9,0.9c0.1,1.4,0,1.4,1.4,1.4c5.5,0,10.9,0,16.4,0c0.7,0,0.8,0.2,0.8,0.8
			c0,8.4,0,16.8,0,25.2c0,0.6-0.1,0.8-0.8,0.8c-10.1,0-20.2,0-30.4,0c-0.7,0-0.9-0.2-0.8-0.9c0-3.5,0-7,0-10.6
			c0-0.7,0.2-0.8,0.8-0.8c5.6,0,11.3,0,16.9,0c0.7,0,1-0.1,0.9-0.9c-0.1-1.4,0-1.4-1.5-1.4c-5.4,0-10.9,0-16.3,0
			c-0.7,0-0.9-0.2-0.9-0.9c0-8.2,0-16.4,0-24.6c0-0.7,0.3-0.8,0.9-0.8C276.9,97.3,281.9,97.3,287,97.3z"/>
		<path class="st1" d="M194.1,117.4c0-6.4,0-12.8,0-19.3c0-0.7,0.1-0.8,0.8-0.8c10.1,0,20.3,0,30.4,0c0.7,0,0.8,0.2,0.8,0.8
			c0,3.9,0,7.9,0,11.8c0,0.7-0.2,0.8-0.8,0.8c-5.7,0-11.3,0-17,0c-0.7,0-0.9,0.2-0.9,0.9c0,3.9,0,7.9,0,11.8c0,0.6,0.2,0.8,0.8,0.8
			c5.7,0,11.4,0,17.1,0c0.6,0,0.8,0.1,0.8,0.8c0,3.9,0,7.9,0,11.8c0,0.6-0.1,0.8-0.8,0.8c-10.1,0-20.3,0-30.4,0
			c-0.7,0-0.8-0.2-0.8-0.8C194.1,130.2,194.1,123.8,194.1,117.4z"/>
	</g>
</g>
</svg>
