<?xml version="1.0" encoding="utf-8"?>
<!-- Generator: Adobe Illustrator 23.0.4, SVG Export Plug-In . SVG Version: 6.00 Build 0)  -->
<svg version="1.1" id="Layer_1" xmlns="http://www.w3.org/2000/svg" xmlns:xlink="http://www.w3.org/1999/xlink" x="0px" y="0px"
	 viewBox="0 0 1000 999.04" style="enable-background:new 0 0 1000 999.04;" xml:space="preserve">
<style type="text/css">
	.st0{fill:#67527B;}
	.st1{fill:#D2C1FF;}
</style>
<g>
	<g>
		
			<rect x="392.25" y="-241.68" transform="matrix(0.7071 -0.7071 0.7071 0.7071 272.4327 212.9358)" class="st0" width="2.01" height="38.59"/>
	</g>
	<g>
		
			<rect x="373.98" y="-223.52" transform="matrix(0.7071 -0.7071 0.7071 0.7071 272.5103 212.8742)" class="st0" width="38.48" height="2.01"/>
	</g>
</g>
<g>
	<g>
		<path class="st1" d="M577.41,576.79c-98.96,98.96-213.56,193.56-258.85,148.26c-64.86-64.85-104.85-121.34-247.81-6.44
			C-72.23,833.56,37.58,910.15,100.41,973c72.5,72.49,342.76,3.81,609.9-263.29c267.1-267.16,335.83-537.43,263.28-609.95
			C910.74,36.92,834.16-72.85,719.26,70.14c-114.93,142.93-58.46,182.93,6.41,247.79C770.94,363.22,676.37,477.81,577.41,576.79z"/>
	</g>
</g>
</svg>
