<?xml version="1.0" encoding="utf-8"?>
<!-- Generator: Adobe Illustrator 23.0.4, SVG Export Plug-In . SVG Version: 6.00 Build 0)  -->
<svg version="1.1" id="Layer_1" xmlns="http://www.w3.org/2000/svg" xmlns:xlink="http://www.w3.org/1999/xlink" x="0px" y="0px"
	 viewBox="0 0 1000 832.26" style="enable-background:new 0 0 1000 832.26;" xml:space="preserve">
<style type="text/css">
	.st0{fill:#67527B;}
	.st1{fill-rule:evenodd;clip-rule:evenodd;fill:#D2C1FF;}
</style>
<g>
	<g>
		
			<rect x="392.25" y="-325.07" transform="matrix(0.7071 -0.7071 0.7071 0.7071 331.3992 188.5111)" class="st0" width="2.01" height="38.59"/>
	</g>
	<g>
		
			<rect x="373.98" y="-306.91" transform="matrix(0.7071 -0.7071 0.7071 0.7071 331.4768 188.4495)" class="st0" width="38.48" height="2.01"/>
	</g>
</g>
<g>
	<path class="st1" d="M499.98,457.74C418.71,457.74,0,120.3,0,120.3V83.23C0,37.29,37.29,0,83.31,0h833.34
		C962.71,0,1000,37.29,1000,83.23l-0.67,41.61C999.33,124.84,585.16,457.74,499.98,457.74z M499.98,572.18
		c89.09,0,499.36-322.5,499.36-322.5l0.67,499.35c0,45.94-37.29,83.23-83.35,83.23H83.31C37.33,832.26,0,794.97,0,749.03
		l0.67-499.35C0.62,249.68,418.71,572.18,499.98,572.18z"/>
</g>
</svg>
