<?xml version="1.0" encoding="utf-8"?>
<!-- Generator: Adobe Illustrator 19.0.0, SVG Export Plug-In . SVG Version: 6.00 Build 0)  -->
<svg version="1.1" id="Layer_1" xmlns="http://www.w3.org/2000/svg" xmlns:xlink="http://www.w3.org/1999/xlink" x="0px" y="0px"
	 viewBox="0 0 500 500" style="enable-background:new 0 0 500 500;" xml:space="preserve">
<style type="text/css">
	.st0{fill:#625379;}
	.st1{fill:#CBBFFC;}
</style>
<g id="XMLID_34_">
	<g id="XMLID_35_">
		<path id="XMLID_10_" class="st0" d="M481,500H19c-10.4,0-19-8.6-19-19V19C0,8.6,8.5,0,19,0h462c10.4,0,19,8.6,19,19v462
			C500,491.4,491.4,500,481,500z"/>
	</g>
</g>
<g id="XMLID_2_">
	<g id="XMLID_17_">
		<path id="XMLID_21_" class="st1" d="M377.8,199.9c0-16.9-21.2-33-53.7-42.9c7.5-33.1,4.2-59.5-10.5-67.9c-3.4-2-7.3-2.9-11.7-2.9
			v11.6c2.4,0,4.3,0.5,5.9,1.4c7.1,4.1,10.2,19.5,7.8,39.4c-0.6,4.9-1.5,10.1-2.7,15.3c-10.2-2.5-21.4-4.4-33.1-5.7
			c-7-9.6-14.3-18.4-21.7-26c17-15.8,32.9-24.4,43.8-24.4V86.1l0,0c-14.3,0-33.1,10.2-52,27.9c-19-17.6-37.7-27.7-52-27.7v11.6
			c10.8,0,26.8,8.6,43.8,24.3c-7.3,7.7-14.6,16.4-21.5,26c-11.8,1.3-22.9,3.2-33.1,5.7c-1.2-5.2-2.1-10.3-2.7-15.1
			c-2.4-19.9,0.6-35.4,7.6-39.5c1.6-0.9,3.6-1.4,6-1.4V86.4l0,0c-4.4,0-8.3,0.9-11.8,2.9c-14.6,8.4-17.9,34.7-10.4,67.8
			c-32.4,10-53.5,26-53.5,42.9c0,16.9,21.2,33,53.7,42.9c-7.5,33.1-4.2,59.5,10.5,67.9c3.4,2,7.3,2.9,11.7,2.9
			c14.3,0,33.1-10.2,52-27.9c19,17.6,37.7,27.7,52,27.7c4.4,0,8.3-0.9,11.8-2.9c14.6-8.4,17.9-34.7,10.4-67.8
			C356.7,232.9,377.8,216.8,377.8,199.9z M310,165.2c-1.9,6.7-4.3,13.6-7,20.6c-2.1-4.2-4.4-8.3-6.8-12.5c-2.4-4.2-4.9-8.2-7.5-12.2
			C296,162.2,303.1,163.5,310,165.2z M286.1,220.7c-4.1,7-8.2,13.7-12.6,19.9c-7.8,0.7-15.6,1-23.5,1c-7.9,0-15.7-0.4-23.4-1
			c-4.3-6.2-8.5-12.8-12.6-19.8c-4-6.8-7.6-13.8-10.8-20.7c3.2-7,6.9-14,10.8-20.8c4.1-7,8.2-13.7,12.6-19.9c7.8-0.7,15.6-1,23.5-1
			c7.9,0,15.7,0.4,23.4,1c4.3,6.2,8.5,12.8,12.6,19.8c4,6.8,7.6,13.8,10.8,20.7C293.6,206.9,290,213.8,286.1,220.7z M302.9,213.9
			c2.8,7,5.2,14,7.2,20.7c-6.8,1.7-14,3.1-21.5,4.2c2.6-4,5.1-8.1,7.5-12.3C298.5,222.3,300.8,218.1,302.9,213.9z M250.1,269.5
			c-4.8-5-9.7-10.6-14.5-16.7c4.7,0.2,9.5,0.4,14.3,0.4c4.9,0,9.7-0.1,14.5-0.4C259.7,258.9,254.9,264.5,250.1,269.5z M211.4,238.8
			c-7.4-1.1-14.5-2.4-21.4-4.1c1.9-6.7,4.3-13.6,7-20.6c2.1,4.2,4.4,8.3,6.8,12.5C206.3,230.8,208.8,234.8,211.4,238.8z
			 M249.8,130.4c4.8,5,9.7,10.6,14.5,16.7c-4.7-0.2-9.5-0.4-14.3-0.4c-4.9,0-9.7,0.1-14.5,0.4C240.2,141,245.1,135.4,249.8,130.4z
			 M211.3,161.1c-2.6,4-5.1,8.1-7.5,12.3c-2.4,4.2-4.6,8.3-6.8,12.5c-2.8-7-5.2-14-7.2-20.7C196.7,163.6,203.9,162.2,211.3,161.1z
			 M164.2,226.3c-18.4-7.9-30.4-18.2-30.4-26.4s11.9-18.5,30.4-26.4c4.5-1.9,9.4-3.6,14.4-5.3c3,10.2,6.9,20.8,11.7,31.7
			c-4.8,10.8-8.6,21.4-11.6,31.6C173.6,230,168.7,228.2,164.2,226.3z M192.2,300.7c-7.1-4.1-10.2-19.5-7.8-39.4
			c0.6-4.9,1.5-10.1,2.7-15.3c10.2,2.5,21.4,4.4,33.1,5.7c7,9.6,14.3,18.4,21.7,26c-17,15.8-32.9,24.4-43.8,24.4
			C195.7,302.1,193.7,301.6,192.2,300.7z M315.7,261c2.4,19.9-0.6,35.4-7.6,39.5c-1.6,0.9-3.6,1.4-6,1.4c-10.8,0-26.8-8.6-43.8-24.3
			c7.3-7.7,14.6-16.4,21.5-26c11.8-1.3,22.9-3.2,33.1-5.7C314.2,251.1,315.2,256.2,315.7,261z M335.8,226.3
			c-4.5,1.9-9.4,3.6-14.4,5.3c-3-10.2-6.9-20.8-11.7-31.7c4.8-10.8,8.6-21.4,11.6-31.6c5.2,1.6,10.1,3.4,14.6,5.3
			c18.4,7.9,30.4,18.2,30.4,26.4C366.2,208.1,354.2,218.5,335.8,226.3z"/>
		<path id="XMLID_20_" class="st1" d="M197.8,86.3L197.8,86.3L197.8,86.3z"/>
		<circle id="XMLID_19_" class="st1" cx="249.9" cy="199.9" r="23.8"/>
		<path id="XMLID_18_" class="st1" d="M301.8,86.2L301.8,86.2L301.8,86.2z"/>
	</g>
	<g id="XMLID_3_">
		<path id="XMLID_14_" class="st1" d="M142.6,355.9c0.9-0.1,1.6-0.2,2.3-0.2c6,0,12-0.3,17.9,0c3.5,0.1,7,0.9,10.1,2.7
			c4.2,2.5,6.2,6.4,6.6,11.2c0.3,3.7,0,7.3-2,10.6c-1.7,2.8-4.2,4.4-7.6,5.6c1.1,0.8,2.2,1.3,2.9,2.2c2.3,3,4.7,6,6.6,9.3
			c2.5,4.4,4.6,9.1,6.9,13.6c0.2,0.5,0.3,1,0.5,1.8c-2.5,0-4.6,0.1-6.8-0.1c-0.6-0.1-1.3-1.1-1.7-1.8c-2.5-4.8-4.8-9.7-7.3-14.4
			c-1-1.9-2.3-3.8-3.9-5.2c-1.4-1.2-3.5-2.2-5.3-2.4c-3.7-0.4-7.4-0.1-11.4-0.1c0,8.1,0,16,0,24.1c-2.3,0-4.3,0-6.3,0
			c-1.3,0-1.5-0.9-1.5-2c0-8.6,0-17.2,0-25.8C142.6,375.3,142.6,365.7,142.6,355.9z M150.4,361.8c0,6.7,0,13,0,19.4
			c0,1.1,0.7,1.2,1.6,1.2c3.3,0,6.6,0.2,9.9-0.1c5-0.4,8.5-2.2,9.7-7.5c1.4-6.7-1.6-12.5-9.2-13
			C158.5,361.6,154.6,361.8,150.4,361.8z"/>
		<path id="XMLID_11_" class="st1" d="M268.2,406.7c-1.8,2.7-4.1,4.6-7,5.8c-6.4,2.6-14.7,1.4-18.6-3.4c-5.4-6.7-3.7-19.4,7.1-22
			c5.5-1.3,11.1-1.2,16.7-1.3c2.4,0,2.7-0.3,2.4-2.6c-0.6-4.2-3.6-6.9-7.8-8c-3.6-0.9-7-0.5-10.5,0.1c-2,0.4-3.9,1.3-5.8,1.9
			c-0.5,0.2-1,0.4-1.8,0.7c0-1.9-0.1-3.5,0.1-5.1c0-0.4,0.6-1,1.1-1.2c5.3-1.9,10.8-2.8,16.5-2.5c7.3,0.3,13.6,5.7,14.5,13
			c0.5,3.7,0.6,7.4,0.7,11.1c0.1,6,0,12,0,17.9c0,1.2-0.3,1.9-1.6,1.7c-0.7-0.1-1.5,0-2.2,0c-3.2,0-3.2,0-3.1-3.2c0-0.9,0-1.8,0-2.6
			C268.5,406.8,268.3,406.8,268.2,406.7z M262.7,390.9c0-0.1,0-0.1,0-0.2c-3.1,0.3-6.3,0.5-9.4,1c-3.1,0.5-5.8,2.1-6.5,5.3
			c-0.7,3.3-0.6,6.5,2.4,9c3.4,2.7,7.8,2.7,11.7,1.1c5.8-2.5,8.4-9,7.9-15c0-0.5-0.8-1.1-1.3-1.2
			C265.8,390.8,264.2,390.9,262.7,390.9z"/>
		<path id="XMLID_6_" class="st1" d="M228.6,404.2c0,2.2,0.1,3.9-0.1,5.5c0,0.5-0.7,1.1-1.3,1.3c-2.3,0.7-4.6,1.5-7,1.9
			c-2.9,0.5-5.8,0.9-8.7,0.8c-8.4-0.4-15.2-3.7-18.8-11.8c-2.2-4.9-2.5-10.1-1.6-15.4c0.7-4.2,2.1-8,5-11.2
			c3.7-4.1,8.3-6.1,13.8-6.4c4.5-0.2,8.8,0.4,12.6,3.1c4.4,3.2,6.6,7.6,7.3,12.8c0.3,1.9,0.1,3.9,0.3,5.8c0.1,1.6-0.5,2-2,2
			c-9.3-0.1-18.6,0-27.8,0c-2.7,0-2.8,0.1-2.3,2.8c0.8,4.7,2.8,8.5,7.2,10.8c3,1.5,6.2,2,9.6,1.7C219.5,407.7,224,406.7,228.6,404.2
			z M210.8,387.8C210.8,387.8,210.8,387.8,210.8,387.8c3.7,0,7.3,0,11,0c1.3,0,2-0.4,1.8-1.8c-0.6-5.4-3.8-10-9.2-11.1
			c-7.4-1.5-15.1,2.7-16,11.1c-0.2,1.4,0.3,1.9,1.7,1.8C203.6,387.8,207.2,387.8,210.8,387.8z"/>
		<path id="XMLID_5_" class="st1" d="M321.3,405.3c0,1.7,0.3,3.3-0.1,4.8c-0.2,0.8-1.5,1.5-2.5,1.9c-4.2,1.6-8.6,2.1-13.1,1.8
			c-7.9-0.5-15.7-7.3-17.3-15.2c-1.2-5.9-1.3-11.6,0.9-17.3c2.4-6.3,7-10.1,13.6-11.6c6-1.4,11.8-0.7,17.5,1.7c0.4,0.2,1,0.7,1,1
			c0.1,1.6,0,3.3,0,5.2c-2-0.7-3.8-1.5-5.6-2c-6.8-2.1-15.2-1.6-19.1,6.3c-2.3,4.5-2.5,9.4-1.5,14.4c0.7,3.1,1.8,5.9,4.1,8.1
			c3.6,3.4,8,4.3,12.7,3.4c2.8-0.5,5.4-1.6,8.1-2.5C320.4,405.3,320.7,405.4,321.3,405.3z"/>
		<path id="XMLID_4_" class="st1" d="M355.3,369.9c0,1.9,0,3.5,0,5.3c-3.7,0-7.3,0-11,0c-4.3,0-3.9-0.5-3.9,3.9c0,6,0,12,0,17.9
			c0,1.8,0.2,3.7,0.4,5.5c0.4,3.1,1.8,4.3,5,4.4c3.1,0.1,6.2,0,9.6,0c0,1.9,0.1,3.4,0,4.9c0,0.4-0.7,1-1,1
			c-4.7-0.3-9.3-0.4-13.9-1.2c-4.6-0.8-6.1-4.6-6.3-8.7c-0.3-6.6-0.2-13.2-0.3-19.8c0-2-0.1-3.9,0-5.9c0.1-1.6-0.6-2.2-2.2-2.1
			c-1,0.1-1.9,0-3.1,0c0-1.5-0.1-2.9,0.1-4.3c0-0.4,0.8-0.9,1.3-0.9c3.9-0.2,3.9-0.2,3.9-4.1c0-2.1,0-4.3,0-6.4
			c0-1.1,0.4-1.5,1.5-1.5c1.2,0.1,2.3,0.1,3.5,0c1.3-0.1,1.7,0.5,1.6,1.7c-0.1,2.8,0,5.6-0.1,8.4c0,1.4,0.5,1.8,1.8,1.8
			c3.7,0,7.3,0,11,0C353.8,369.9,354.5,369.9,355.3,369.9z"/>
	</g>
</g>
</svg>
