<?xml version="1.0" encoding="utf-8"?>
<!-- Generator: Adobe Illustrator 19.0.0, SVG Export Plug-In . SVG Version: 6.00 Build 0)  -->
<svg version="1.1" id="Layer_1" xmlns="http://www.w3.org/2000/svg" xmlns:xlink="http://www.w3.org/1999/xlink" x="0px" y="0px"
	 viewBox="0 0 500 500" style="enable-background:new 0 0 500 500;" xml:space="preserve">
<style type="text/css">
	.st0{fill:#625379;}
	.st1{fill:#CBBFFC;}
</style>
<g>
	<g>
		<path id="XMLID_10_" class="st0" d="M481,500H19c-10.5,0-19-8.6-19-19V19C0,8.5,8.6,0,19,0h462c10.5,0,19,8.6,19,19v462
			C500,491.4,491.5,500,481,500z"/>
	</g>
	<g id="comp_x5F_288-sass_3_">
		<g>
			<path class="st1" d="M386.1,269.7c-13.1,0.1-24.4,3.2-33.9,7.9c-3.4-7-7-13-7.6-17.6c-0.7-5.3-1.5-8.5-0.6-14.8
				c0.8-6.3,4.5-15.3,4.4-15.9c-0.1-0.6-0.8-3.9-8.4-3.9c-7.5-0.1-14,1.5-14.8,3.4c-0.8,2-2.2,6.5-3.1,11.2
				c-1.3,6.8-15.1,31.3-22.9,44c-2.6-5-4.7-9.4-5.2-12.9c-0.7-5.3-1.5-8.5-0.6-14.8c0.8-6.3,4.5-15.3,4.4-15.9
				c-0.1-0.6-0.8-3.9-8.4-3.9c-7.5-0.1-14,1.5-14.8,3.4c-0.8,2-1.6,6.7-3.1,11.2s-19.8,45.2-24.6,55.8c-2.5,5.4-4.6,9.7-6.1,12.6
				c-0.2,0.5-0.4,0.8-0.5,1c0.2-0.3,0.3-0.6,0.3-0.5c-1.3,2.5-2,3.9-2,3.9v0.1c-1,1.9-2.1,3.6-2.6,3.6c-0.4,0-1.1-4.9,0.2-11.6
				c2.7-14.1,9.2-36.1,9.2-36.9c-0.1-0.4,1.2-4.2-4.3-6.3c-5.3-1.9-7.2,1.3-7.7,1.3s-0.8,1.2-0.8,1.2s5.9-24.8-11.3-24.8
				c-10.8,0-25.7,11.8-33.1,22.5c-4.6,2.5-14.6,7.9-25.1,13.7c-4,2.2-8.2,4.5-12.1,6.7c-0.3-0.3-0.5-0.6-0.8-0.9
				c-21-22.2-59.6-38-58-68c0.6-10.9,4.4-39.6,74.3-74.5c57.3-28.5,103.1-20.7,111-3.3c11.3,24.8-24.5,71.1-84,77.7
				c-22.7,2.5-34.6-6.3-37.6-9.5c-3.1-3.4-3.6-3.6-4.7-3c-1.9,1.1-0.7,4.1,0,5.9c1.8,4.6,9.1,12.8,21.5,16.9
				c10.9,3.6,37.5,5.6,69.7-6.9c36.1-13.9,64.2-52.7,56-85.1c-8.4-33-63.1-43.8-114.8-25.4c-30.8,10.9-64.1,28.1-88.1,50.5
				c-28.5,26.7-33,49.9-31.2,59.6c6.7,34.4,54.1,56.9,73.1,73.5c-0.9,0.5-1.8,1-2.6,1.5c-9.5,4.7-45.7,23.7-54.8,43.7
				c-10.2,22.7,1.7,38.9,9.5,41.2c24.4,6.8,49.5-5.4,62.9-25.5c13.4-20,11.8-46.2,5.6-58.2c-0.1-0.2-0.2-0.3-0.2-0.5
				c2.5-1.5,5-2.9,7.5-4.4c4.9-2.9,9.6-5.5,13.7-7.8c-2.3,6.3-4,13.9-4.9,24.9c-1.1,12.9,4.3,29.5,11.2,36.1c3,2.9,6.7,2.9,9,2.9
				c8.1,0,11.7-6.7,15.7-14.6c5-9.7,9.4-21,9.4-21s-5.5,30.5,9.5,30.5c5.5,0,11-7.1,13.4-10.7v0.1c0,0,0.1-0.2,0.4-0.7
				c0.6-0.9,0.9-1.4,0.9-1.4v-0.2c2.2-3.8,7.1-12.5,14.4-26.9c9.5-18.6,18.5-41.8,18.5-41.8s0.8,5.7,3.6,15.1
				c1.6,5.6,5.1,11.6,7.8,17.5c-2.2,3-3.6,4.8-3.6,4.8s0,0.1,0.1,0.1c-1.8,2.3-3.7,4.9-5.8,7.3c-7.5,8.9-16.4,19.1-17.5,22
				c-1.4,3.4-1.1,6,1.6,8c2,1.5,5.5,1.8,9.2,1.5c6.7-0.5,11.5-2.1,13.7-3.2c3.6-1.3,7.8-3.3,11.8-6.2c7.3-5.4,11.7-13.1,11.3-23.3
				c-0.2-5.6-2-11.2-4.3-16.5c0.6-0.9,1.3-1.9,2-2.9c11.6-16.9,20.5-35.4,20.5-35.4s0.8,5.7,3.6,15.1c1.4,4.7,4.2,9.9,6.7,15
				c-10.9,8.8-17.6,19.1-19.9,25.8c-4.3,12.5-0.9,18.1,5.4,19.3c2.9,0.6,7-0.8,10-2c3.8-1.3,8.4-3.3,12.6-6.5
				c7.3-5.4,14.4-12.9,13.9-23.1c-0.2-4.6-1.5-9.2-3.2-13.7c9.2-3.9,21.1-6,36.3-4.2c32.6,3.8,38.9,24.1,37.7,32.6
				c-1.2,8.5-8.1,13.2-10.3,14.6c-2.3,1.4-3,1.9-2.8,3c0.3,1.5,1.3,1.5,3.3,1.1c2.7-0.5,17.1-6.9,17.7-22.6
				C439.1,291.4,420,269.6,386.1,269.7L386.1,269.7z M135.2,354.3c-10.8,11.7-25.8,16.2-32.3,12.5c-7-4-4.2-21.3,9.1-33.8
				c8.1-7.6,18.5-14.6,25.4-18.9c1.6-0.9,3.9-2.3,6.7-4c0.5-0.3,0.7-0.4,0.7-0.4c0.5-0.4,1.1-0.6,1.7-1
				C151.2,326.3,146.5,342,135.2,354.3L135.2,354.3z M213.8,300.9c-3.7,9.2-11.6,32.6-16.4,31.3c-4.1-1.1-6.6-18.9-0.8-36.4
				c2.9-8.8,9.1-19.3,12.8-23.4c5.9-6.6,12.4-8.7,13.9-6.1C225.3,269.7,216.1,295.2,213.8,300.9L213.8,300.9z M278.6,331.9
				c-1.6,0.8-3,1.3-3.7,0.9c-0.5-0.3,0.6-1.4,0.6-1.4s8.1-8.7,11.3-12.7c1.9-2.3,4-5.1,6.4-8.1c0,0.3,0.1,0.6,0.1,0.9
				C293.3,322,283.2,329.1,278.6,331.9z M328.7,320.5c-1.2-0.8-1-3.6,2.9-12.1c1.5-3.3,5-8.9,11.1-14.3c0.7,2.2,1.1,4.3,1.1,6.3
				C343.8,313.5,334.3,318.4,328.7,320.5L328.7,320.5z"/>
		</g>
	</g>
</g>
</svg>
